{"title":"A.Midsummer.Nights.Rave[2002]","uid":4671896,"size":732276783,"categoryP":"video","categoryS":"movies","magnet":"?xt=urn:btih:d378458929f683c358b84a9e1cbbe3d10bbe385f&amp;dn=A.Midsummer.Nights.Rave%5B2002%5D&amp;tr=udp%3A%2F%2Ftracker.openbittorrent.com%3A80&amp;tr=udp%3A%2F%2Fopen.demonii.com%3A1337&amp;tr=udp%3A%2F%2Ftracker.coppersurfer.tk%3A6969&amp;tr=udp%3A%2F%2Fexodus.desync.com%3A6969","seeders":3,"leechers":0,"uploader":"mkiisupra1982","files":2,"time":1232764140,"description":" &lt;a href=&quot;http://www.imdb.com/title/tt0323248/maindetails&quot; rel=&quot;nofollow&quot; target=&quot;_NEW&quot;&gt;http://www.imdb.com/title/tt0323248/maindetails&lt;/a&gt;\n\nShakespeare's A MIDSUMMER NIGHT'S DREAM gets a rave culture makeover in this energetic and funny adaptation set at an all night druggy dance party. After sunset, a group of Los Angeles friends are given a dose of a glowing green &quot;love potion&quot; by their party boy pal, Puck. As the evening unfolds, the gang's lack of inhibitions will allow them to connect with the boys and girls of their dreams and become one with the music. But will a soured drug deal ruin their collective high? Andrew Keegan (10 THINGS I HATE ABOUT YOU) stars in this energetic slice of comedic decadence set to a pulsating beat.\n\nFormat                           : AVI\nFormat/Info                      : Audio Video Interleave\nFile size                        : 698 MiB\nDuration                         : 1h 24mn\nOverall bit rate                 : 1 157 Kbps\nWriting application              : VirtualDubMod 1.5.10.1 (build 2439/release)\nWriting library                  : VirtualDubMod build 2439/release\n\nVideo\nFormat                           : MPEG-4 Visual\nFormat profile                   : Streaming Video@L1\nFormat settings, BVOP            : Yes\nFormat settings, QPel            : No\nFormat settings, GMC             : No warppoints\nFormat settings, Matrix          : Default\nMuxing mode                      : Packed bitstream\nCodec ID                         : XVID\nCodec ID/Hint                    : XviD\nDuration                         : 1h 24mn\nBit rate                         : 1 016 Kbps\nWidth                            : 576 pixels\nHeight                           : 304 pixels\nDisplay aspect ratio             : 1.895\nFrame rate                       : 23.976 fps\nResolution                       : 24 bits\nColorimetry                      : 4:2:0\nScan type                        : Progressive\nBits/(Pixel*Frame)               : 0.242\nStream size                      : 613 MiB (88%)\nWriting library                  : XviD 1.0.2 (UTC 2004-08-29)\n\nAudio\nFormat                           : MPEG Audio\nFormat version                   : Version 1\nFormat profile                   : Layer 3\nCodec ID                         : 55\nCodec ID/Hint                    : MP3\nDuration                         : 1h 24mn\nBit rate mode                    : Variable\nBit rate                         : 128 Kbps\nNominal bit rate                 : 139 Kbps\nChannel(s)                       : 2 channels\nSampling rate                    : 48.0 KHz\nResolution                       : 16 bits\nStream size                      : 77.4 MiB (11%)\nAlignment                        : Aligned on interleaves\nInterleave, duration             : 24 ms (0.58 video frame)\nInterleave, preload duration     : 478 ms\nWriting library                  : LAME3.90.\nEncoding settings                : ABR\n","torrent":{"xt":"urn:btih:d378458929f683c358b84a9e1cbbe3d10bbe385f","amp;dn":"A.Midsummer.Nights.Rave%5B2002%5D","amp;tr":["udp%3A%2F%2Ftracker.openbittorrent.com%3A80","udp%3A%2F%2Fopen.demonii.com%3A1337","udp%3A%2F%2Ftracker.coppersurfer.tk%3A6969","udp%3A%2F%2Fexodus.desync.com%3A6969"],"infoHash":"d378458929f683c358b84a9e1cbbe3d10bbe385f","infoHashBuffer":{"type":"Buffer","data":[211,120,69,137,41,246,131,195,88,184,74,158,28,187,227,209,11,190,56,95]},"announce":[],"urlList":[]}}